<svg width="122" height="70" viewBox="0 0 122 70" fill="none" xmlns="http://www.w3.org/2000/svg">
<g clip-path="url(#clip0_1_27)">
<path d="M20.0795 9.27356L42.1091 39.6939V22.5036L56.1885 9.27356V60.7078H42.1832V60.5586L20.0795 30.0636V60.7016H6V9.27356H20.0795Z" fill="#1E1E1E"/>
<path d="M98.9986 27.6056C98.9986 27.6056 90.4946 34.8912 87.8837 37.5767C87.8527 37.6078 87.8154 37.6451 87.7843 37.6824L86.9016 38.7578L86.6405 39.1992C83.955 44.1785 84.5642 47.554 87.9646 52.726C87.9894 52.7695 88.0205 52.8068 88.0516 52.8503L88.8038 53.8014C89.8543 55.1255 88.2692 56.9096 86.827 56.0207L85.795 55.3804C85.7515 55.3555 85.708 55.3307 85.6645 55.3058C80.1568 52.5457 76.601 52.3344 72.1439 55.5234C72.1004 55.5545 72.0568 55.5918 72.0133 55.6228H72.0071C70.6706 56.7729 68.7932 55.1007 69.7692 53.6398C69.8003 53.5901 69.8376 53.5341 69.8625 53.4844C72.4982 48.5486 71.8766 45.1856 68.4949 40.0446C68.47 40.0011 68.4389 39.9576 68.4078 39.9203L67.6556 38.9692C66.6051 37.6451 68.1903 35.861 69.6325 36.7499L70.6644 37.384C70.7079 37.4089 70.7514 37.4337 70.7949 37.4586C76.3151 40.2249 79.8708 40.43 84.3404 37.2162C84.3653 37.1975 84.3901 37.1789 84.415 37.1602C84.6574 36.9675 86.6094 35.1958 88.9281 32.7155C97.0591 24.0374 103.232 16.584 107.391 8.98758H68.1281C66.0518 8.98758 64.3548 10.6847 64.3548 12.7609V57.2142C64.3548 59.2905 66.0518 60.9876 68.1281 60.9876H112.581C114.658 60.9876 116.355 59.2905 116.355 57.2142V18.71C110.934 20.3076 104.687 23.0863 98.9862 27.6118L98.9986 27.6056ZM80.2003 22.2285L86.2737 12.7671H89.0276L82.5936 22.8439V23.708H87.6227V19.8165H90.0781V29.3711H87.6227V25.9148H80.2065V22.2285H80.2003ZM69.6573 14.918C70.0863 14.1658 70.6955 13.5815 71.4787 13.165C72.262 12.7485 73.1634 12.5371 74.1953 12.5371C75.2272 12.5371 76.1224 12.7361 76.8932 13.1401C77.6578 13.5442 78.2546 14.1037 78.6773 14.8372C79.1 15.5645 79.3114 16.4224 79.3114 17.4046C79.3114 18.2251 79.1 19.0643 78.6835 19.9284C78.267 20.7925 77.5646 21.7249 76.5824 22.7258L72.262 27.1394H79.4916V29.3711H69.2097V27.1394L74.9661 21.1095C75.6002 20.4257 76.0664 19.7916 76.3524 19.2011C76.6383 18.6105 76.7875 18.0324 76.7875 17.4729C76.7875 16.6399 76.5513 15.9748 76.0851 15.4713C75.6126 14.974 74.9723 14.7191 74.1518 14.7191C73.3312 14.7191 72.6536 14.974 72.1625 15.4899C71.6714 16.0059 71.4228 16.6959 71.4228 17.56H68.9673C68.9984 16.5467 69.2284 15.664 69.6635 14.9118L69.6573 14.918ZM108.634 37.3653L100.944 56.0145H97.4694L105.215 37.3343H97.7305V40.8403H94.5477V34.5058H108.628V37.3653H108.634Z" fill="#ED2047"/>
</g>
<defs>
<clipPath id="clip0_1_27">
<rect width="110" height="52" fill="white" transform="translate(6 9)"/>
</clipPath>
</defs>
</svg>
