<svg width="284" height="61" viewBox="0 0 284 61" fill="none" xmlns="http://www.w3.org/2000/svg">
<path d="M15.8274 14.4375L29.6366 33.3843V22.6744L38.464 14.4375V46.4741H29.6852V46.3812L15.8274 27.3901V46.4741H7V14.4375H15.8274Z" fill="#1E1E1E"/>
<path d="M42.5793 30.4115C42.5793 27.8812 42.9816 25.5764 43.7905 23.5017C44.5994 21.4269 45.7399 19.6486 47.2207 18.1711C48.6971 16.6936 50.4741 15.5478 52.5472 14.7383C54.6204 13.9287 56.9234 13.5262 59.4518 13.5262C61.9802 13.5262 64.3274 13.9332 66.405 14.7383C68.4781 15.5478 70.2595 16.6891 71.7536 18.1711C73.2477 19.653 74.397 21.4269 75.2059 23.5017C76.0148 25.5764 76.4171 27.8812 76.4171 30.4115C76.4171 32.9419 76.0104 35.2953 75.2059 37.37C74.397 39.4448 73.2477 41.2319 71.7536 42.7227C70.2595 44.218 68.4737 45.3681 66.405 46.1777C64.3319 46.9872 62.0156 47.3898 59.4518 47.3898C56.888 47.3898 54.6204 46.9872 52.5472 46.1777C50.4741 45.3681 48.6971 44.218 47.2207 42.7227C45.7399 41.2275 44.5994 39.4448 43.7905 37.37C42.9816 35.2953 42.5793 32.9773 42.5793 30.4115ZM51.4068 30.4558C51.4068 33.2648 52.0831 35.5121 53.4401 37.2064C54.7972 38.9006 56.7863 39.7456 59.4076 39.7456C60.747 39.7456 61.9228 39.5244 62.9306 39.082C63.9384 38.6396 64.7916 38.0159 65.49 37.2064C66.1928 36.3968 66.7188 35.4192 67.068 34.2779C67.4173 33.1321 67.5941 31.8581 67.5941 30.4558C67.5941 29.0534 67.4173 27.8237 67.068 26.6779C66.7188 25.5322 66.1928 24.5501 65.49 23.7273C64.7872 22.9045 63.934 22.2719 62.9306 21.8295C61.9228 21.3871 60.7514 21.1659 59.4076 21.1659C56.7863 21.1659 54.7972 22.0197 53.4401 23.7273C52.0831 25.4348 51.4068 27.6777 51.4068 30.4558Z" fill="#1E1E1E"/>
<path d="M77.0138 14.4375H108.478V22.0817H97.3651V46.5139L88.5156 46.5448L88.5863 22.0817H77.0182V14.4375H77.0138Z" fill="#1E1E1E"/>
<path d="M112.593 46.4741V14.4375H121.372V46.4741H112.593Z" fill="#1E1E1E"/>
<path d="M148.354 23.5459C147.62 22.785 146.754 22.1967 145.746 21.7853C144.738 21.3739 143.597 21.1659 142.316 21.1659C141.034 21.1659 139.84 21.3871 138.819 21.8295C137.798 22.2719 136.936 22.9045 136.233 23.7273C135.53 24.5501 135 25.5366 134.633 26.6779C134.266 27.8237 134.085 29.08 134.085 30.4558C134.085 33.2648 134.801 35.5121 136.233 37.2064C137.665 38.9006 139.694 39.7456 142.316 39.7456C143.686 39.7456 144.906 39.5111 145.976 39.0378C147.041 38.5644 147.925 37.9009 148.628 37.0471L154.069 43.3155C152.606 44.6294 150.882 45.6336 148.902 46.3369C146.922 47.0403 144.742 47.3898 142.364 47.3898C139.831 47.3898 137.533 46.9872 135.46 46.1777C133.386 45.3681 131.609 44.218 130.133 42.7227C128.652 41.2275 127.512 39.4448 126.703 37.37C125.894 35.2953 125.492 32.9773 125.492 30.4115C125.492 27.8458 125.894 25.5764 126.703 23.5017C127.512 21.4269 128.652 19.6486 130.133 18.1711C131.609 16.6936 133.395 15.5478 135.482 14.7383C137.568 13.9287 139.88 13.5262 142.408 13.5262C144.937 13.5262 147.134 13.9066 149.176 14.6719C151.218 15.4328 152.986 16.5343 154.48 17.9676L148.354 23.5503V23.5459Z" fill="#1E1E1E"/>
<path d="M158.6 46.4741V14.4375H167.379V46.4741H158.6Z" fill="#1E1E1E"/>
<path d="M194.498 14.4375H189.604L180.503 14.433L176.202 29.7258H176.158L171.636 45.9653L171.494 46.4741L180.596 46.4785L180.64 46.4741L183.186 37.37H191.797L194.356 46.4785H203.502L194.493 14.4419L194.498 14.4375ZM185.326 29.7258L187.505 21.9357L189.693 29.7258H185.326Z" fill="#1E1E1E"/>
<path d="M216.608 34.2911C214.239 34.1009 212.254 33.6585 210.658 32.964C209.063 32.2695 207.794 31.4113 206.853 30.385C205.911 29.3587 205.252 28.2351 204.877 27.0141C204.501 25.7887 204.364 24.5413 204.466 23.2628C204.567 21.9843 204.925 20.6838 205.526 19.4451C206.132 18.2065 207.038 17.1182 208.245 16.1716C209.452 15.2293 210.994 14.5083 212.869 14.0172C214.743 13.5262 216.988 13.3846 219.601 13.5925C220.878 13.6943 222.098 13.9243 223.261 14.2782C224.423 14.6321 225.493 15.0612 226.461 15.5699C227.429 16.0743 228.296 16.6184 229.06 17.2023C229.825 17.7818 230.475 18.3702 231.005 18.9674L224.45 24.0414C223.897 23.2938 223.155 22.6567 222.218 22.1392C221.281 21.6216 220.1 21.3031 218.668 21.1881C217.028 21.0554 215.737 21.219 214.796 21.6791C213.859 22.1392 213.364 22.6877 213.311 23.3292C213.253 24.0281 213.722 24.7094 214.708 25.3685C215.693 26.0276 217.298 26.4479 219.517 26.6248C221.917 26.8195 223.915 27.2618 225.511 27.9564C227.107 28.6509 228.375 29.5002 229.321 30.5133C230.267 31.5219 230.917 32.6455 231.275 33.8842C231.633 35.1228 231.766 36.3659 231.664 37.6133C231.558 38.9228 231.204 40.2012 230.599 41.4531C229.993 42.7051 229.087 43.8021 227.88 44.7488C226.673 45.6911 225.131 46.4121 223.256 46.9032C221.382 47.3942 219.137 47.5358 216.524 47.3278C215.247 47.2261 214.027 46.9961 212.864 46.6422C211.702 46.2883 210.632 45.8592 209.664 45.3504C208.696 44.8417 207.829 44.302 207.065 43.7181C206.3 43.1342 205.65 42.5502 205.12 41.953L211.675 36.879C212.228 37.6266 212.97 38.2592 213.907 38.7812C214.845 39.2988 216.029 39.6173 217.457 39.7323C219.097 39.865 220.388 39.7013 221.329 39.2413C222.271 38.7812 222.761 38.2327 222.814 37.5912C222.872 36.8923 222.403 36.211 221.418 35.5519C220.432 34.8928 218.827 34.4725 216.608 34.2956V34.2911Z" fill="#1E1E1E"/>
<path d="M263.665 25.2402C263.665 25.2402 257.614 30.4248 255.757 32.3358C255.735 32.358 255.708 32.3845 255.686 32.411L255.058 33.1763L254.872 33.4904C252.961 37.0338 253.395 39.4359 255.814 43.1164C255.832 43.1474 255.854 43.174 255.876 43.2049L256.411 43.8818C257.159 44.824 256.031 46.0936 255.005 45.461L254.271 45.0054C254.24 44.9877 254.209 44.97 254.178 44.9523C250.259 42.9882 247.729 42.8378 244.557 45.1071C244.526 45.1292 244.495 45.1558 244.464 45.1779H244.46C243.509 45.9963 242.173 44.8063 242.868 43.7667C242.89 43.7313 242.916 43.6915 242.934 43.6561C244.809 40.1437 244.367 37.7505 241.961 34.0921C241.943 34.0611 241.921 34.0301 241.899 34.0036L241.364 33.3268C240.616 32.3845 241.744 31.1149 242.77 31.7475L243.505 32.1987C243.535 32.2164 243.566 32.2341 243.597 32.2518C247.525 34.2203 250.055 34.3663 253.236 32.0793C253.253 32.066 253.271 32.0527 253.289 32.0395C253.461 31.9023 254.85 30.6416 256.5 28.8765C262.285 22.701 266.678 17.3969 269.637 11.9911H241.7C240.223 11.9911 239.015 13.1988 239.015 14.6763V46.3104C239.015 47.7879 240.223 48.9956 241.7 48.9956H273.33C274.807 48.9956 276.015 47.7879 276.015 46.3104V18.9098C272.158 20.0467 267.713 22.0241 263.657 25.2446L263.665 25.2402ZM250.29 21.4137L254.611 14.6808H256.571L251.993 21.8516V22.4665H255.571V19.6973H257.318V26.4965H255.571V24.0369H250.294V21.4137H250.29ZM242.788 16.2114C243.093 15.6761 243.527 15.2603 244.084 14.9639C244.641 14.6675 245.283 14.5171 246.017 14.5171C246.751 14.5171 247.388 14.6587 247.937 14.9462C248.481 15.2337 248.905 15.6319 249.206 16.1539C249.507 16.6714 249.657 17.2819 249.657 17.9809C249.657 18.5648 249.507 19.162 249.21 19.7769C248.914 20.3918 248.414 21.0554 247.715 21.7676L244.641 24.9084H249.785V26.4965H242.469V24.9084L246.565 20.6174C247.017 20.1308 247.348 19.6796 247.552 19.2593C247.755 18.8391 247.861 18.4277 247.861 18.0295C247.861 17.4368 247.693 16.9634 247.362 16.6051C247.025 16.2512 246.57 16.0698 245.986 16.0698C245.402 16.0698 244.92 16.2512 244.571 16.6184C244.221 16.9855 244.044 17.4766 244.044 18.0915H242.297C242.319 17.3704 242.483 16.7422 242.792 16.207L242.788 16.2114ZM270.521 32.1854L265.05 45.4566H262.577L268.089 32.1633H262.763V34.6583H260.498V30.1505H270.517V32.1854H270.521Z" fill="#ED2047"/>
</svg>
