<svg width="252" height="61" viewBox="0 0 252 61" fill="none" xmlns="http://www.w3.org/2000/svg">
<path d="M15.8274 14.4375L29.6366 33.3843V22.6744L38.464 14.4375V46.4741H29.6852V46.3812L15.8274 27.3901V46.4741H7V14.4375H15.8274Z" fill="#1E1E1E"/>
<path d="M42.5793 30.4115C42.5793 27.8812 42.9816 25.5764 43.7905 23.5017C44.5994 21.4269 45.7399 19.6486 47.2207 18.1711C48.6971 16.6936 50.4741 15.5478 52.5472 14.7383C54.6204 13.9287 56.9234 13.5262 59.4518 13.5262C61.9802 13.5262 64.3274 13.9332 66.405 14.7383C68.4781 15.5478 70.2595 16.6891 71.7536 18.1711C73.2477 19.653 74.397 21.4269 75.2059 23.5017C76.0148 25.5764 76.4171 27.8812 76.4171 30.4115C76.4171 32.9419 76.0104 35.2953 75.2059 37.37C74.397 39.4448 73.2477 41.2319 71.7536 42.7227C70.2595 44.218 68.4737 45.3681 66.405 46.1777C64.3319 46.9872 62.0156 47.3898 59.4518 47.3898C56.888 47.3898 54.6204 46.9872 52.5472 46.1777C50.4741 45.3681 48.6971 44.218 47.2207 42.7227C45.7399 41.2275 44.5994 39.4448 43.7905 37.37C42.9816 35.2953 42.5793 32.9773 42.5793 30.4115ZM51.4068 30.4558C51.4068 33.2648 52.0831 35.5121 53.4401 37.2064C54.7972 38.9006 56.7863 39.7456 59.4076 39.7456C60.747 39.7456 61.9228 39.5244 62.9306 39.082C63.9384 38.6396 64.7916 38.0159 65.49 37.2064C66.1928 36.3968 66.7188 35.4192 67.068 34.2779C67.4173 33.1321 67.5941 31.8581 67.5941 30.4558C67.5941 29.0534 67.4173 27.8237 67.068 26.6779C66.7188 25.5322 66.1928 24.5501 65.49 23.7273C64.7872 22.9045 63.934 22.2719 62.9306 21.8295C61.9228 21.3871 60.7514 21.1659 59.4076 21.1659C56.7863 21.1659 54.7972 22.0197 53.4401 23.7273C52.0831 25.4348 51.4068 27.6777 51.4068 30.4558Z" fill="#1E1E1E"/>
<path d="M77.0138 14.4375H108.478V22.0817H97.3651V46.5139L88.5156 46.5448L88.5863 22.0817H77.0182V14.4375H77.0138Z" fill="#1E1E1E"/>
<path d="M112.593 46.4741V14.4375H121.372V46.4741H112.593Z" fill="#1E1E1E"/>
<path d="M148.354 23.5459C147.62 22.785 146.754 22.1967 145.746 21.7853C144.738 21.3739 143.597 21.1659 142.316 21.1659C141.034 21.1659 139.84 21.3871 138.819 21.8295C137.798 22.2719 136.936 22.9045 136.233 23.7273C135.53 24.5501 135 25.5366 134.633 26.6779C134.266 27.8237 134.085 29.08 134.085 30.4558C134.085 33.2648 134.801 35.5121 136.233 37.2064C137.665 38.9006 139.694 39.7456 142.316 39.7456C143.686 39.7456 144.906 39.5111 145.976 39.0378C147.041 38.5644 147.925 37.9009 148.628 37.0471L154.069 43.3155C152.606 44.6294 150.882 45.6336 148.902 46.3369C146.922 47.0403 144.742 47.3898 142.364 47.3898C139.831 47.3898 137.533 46.9872 135.46 46.1777C133.386 45.3681 131.609 44.218 130.133 42.7227C128.652 41.2275 127.512 39.4448 126.703 37.37C125.894 35.2953 125.492 32.9773 125.492 30.4115C125.492 27.8458 125.894 25.5764 126.703 23.5017C127.512 21.4269 128.652 19.6486 130.133 18.1711C131.609 16.6936 133.395 15.5478 135.482 14.7383C137.568 13.9287 139.88 13.5262 142.408 13.5262C144.937 13.5262 147.134 13.9066 149.176 14.6719C151.218 15.4328 152.986 16.5343 154.48 17.9676L148.354 23.5503V23.5459Z" fill="#1E1E1E"/>
<path d="M158.6 46.4741V14.4375H167.379V46.4741H158.6Z" fill="#1E1E1E"/>
<path d="M194.498 14.4375H189.604L180.503 14.433L176.202 29.7258H176.158L171.636 45.9653L171.494 46.4741L180.596 46.4785L180.64 46.4741L183.186 37.37H191.797L194.356 46.4785H203.502L194.493 14.4419L194.498 14.4375ZM185.326 29.7258L187.505 21.9357L189.693 29.7258H185.326Z" fill="#1E1E1E"/>
<path d="M235.267 25.2402C235.267 25.2402 229.216 30.4248 227.359 32.3358C227.337 32.358 227.31 32.3845 227.288 32.411L226.66 33.1763L226.474 33.4904C224.563 37.0338 224.997 39.4359 227.416 43.1164C227.434 43.1474 227.456 43.174 227.478 43.2049L228.013 43.8818C228.761 44.824 227.633 46.0936 226.607 45.461L225.873 45.0054C225.842 44.9877 225.811 44.97 225.78 44.9523C221.861 42.9882 219.331 42.8378 216.159 45.1071C216.128 45.1292 216.097 45.1558 216.066 45.1779H216.062C215.111 45.9963 213.775 44.8063 214.47 43.7667C214.492 43.7313 214.518 43.6915 214.536 43.6561C216.411 40.1437 215.969 37.7505 213.563 34.0921C213.545 34.0611 213.523 34.0301 213.501 34.0036L212.966 33.3268C212.218 32.3845 213.346 31.1149 214.372 31.7475L215.106 32.1987C215.137 32.2164 215.168 32.2341 215.199 32.2518C219.127 34.2203 221.657 34.3663 224.838 32.0793C224.855 32.066 224.873 32.0527 224.891 32.0395C225.063 31.9023 226.452 30.6416 228.102 28.8765C233.887 22.701 238.28 17.3969 241.239 11.9911H213.302C211.824 11.9911 210.617 13.1988 210.617 14.6763V46.3104C210.617 47.7879 211.824 48.9956 213.302 48.9956H244.932C246.409 48.9956 247.617 47.7879 247.617 46.3104V18.9098C243.76 20.0467 239.315 22.0241 235.259 25.2446L235.267 25.2402ZM221.892 21.4137L226.213 14.6808H228.173L223.595 21.8516V22.4665H227.173V19.6973H228.92V26.4965H227.173V24.0369H221.896V21.4137H221.892ZM214.39 16.2114C214.695 15.6761 215.129 15.2603 215.686 14.9639C216.243 14.6675 216.885 14.5171 217.619 14.5171C218.353 14.5171 218.99 14.6587 219.539 14.9462C220.083 15.2337 220.507 15.6319 220.808 16.1539C221.109 16.6714 221.259 17.2819 221.259 17.9809C221.259 18.5648 221.109 19.162 220.812 19.7769C220.516 20.3918 220.016 21.0554 219.317 21.7676L216.243 24.9084H221.387V26.4965H214.071V24.9084L218.167 20.6174C218.618 20.1308 218.95 19.6796 219.154 19.2593C219.357 18.8391 219.463 18.4277 219.463 18.0295C219.463 17.4368 219.295 16.9634 218.964 16.6051C218.627 16.2512 218.172 16.0698 217.588 16.0698C217.004 16.0698 216.522 16.2512 216.172 16.6184C215.823 16.9855 215.646 17.4766 215.646 18.0915H213.899C213.921 17.3704 214.085 16.7422 214.394 16.207L214.39 16.2114ZM242.123 32.1854L236.652 45.4566H234.179L239.691 32.1633H234.365V34.6583H232.1V30.1505H242.119V32.1854H242.123Z" fill="#ED2047"/>
</svg>
